<?xml version="1.0" standalone="no"?><!DOCTYPE svg PUBLIC "-//W3C//DTD SVG 1.1//EN" "http://www.w3.org/Graphics/SVG/1.1/DTD/svg11.dtd"><svg t="1596108026577" class="icon" viewBox="0 0 1024 1024" version="1.1" xmlns="http://www.w3.org/2000/svg" p-id="2551" width="222" height="222" xmlns:xlink="http://www.w3.org/1999/xlink"><defs><style type="text/css"></style></defs><path d="M428.576 378.368a50.176 50.176 0 1 0-100.352 0 50.176 50.176 0 0 0 100.352 0m0 0z m166.944 256.448h41.504v-41.504c0-30.56 18.336-56.8 44.512-68.736l-6.944-23.808v-1.664h0.064l-45.408-137.184-158.496 204.512-42.496-71.968-168.576 170.112h276.096a75.36 75.36 0 0 1 59.744-29.76m267.712-361.664a112.704 112.704 0 0 0-112.384-112.384H273.152a112.704 112.704 0 0 0-112.384 112.384v477.664a112.704 112.704 0 0 0 112.384 112.384h337.184v-0.032l0.128 0.032a21.088 21.088 0 1 0 0-42.176l-0.128 0.032v-0.032H273.152a70.304 70.304 0 0 1-70.24-70.24V273.152c0-38.752 31.488-70.24 70.24-70.24h477.664c38.752 0 70.24 31.488 70.24 70.24v335.136c0 0.256-0.128 0.448-0.128 0.672a21.088 21.088 0 1 0 42.176 0l-0.064-0.256h0.192V273.152m-21.888 416.224h-107.424v-107.424a21.088 21.088 0 1 0-42.176 0v107.424H584.32a21.088 21.088 0 1 0 0 42.176h107.424v107.424a21.088 21.088 0 1 0 42.176 0V731.52h107.424a21.088 21.088 0 1 0 0-42.144" p-id="2552"></path></svg>